<svg xmlns="http://www.w3.org/2000/svg" viewBox="0 0 80 368"><defs><style>.cls-1{fill:#9e9e9f}</style></defs><circle class="cls-1" cx="62.68" cy="181.31" r="7.69" id="圖層_26" data-name="圖層 26"/><circle class="cls-1" cx="62.68" cy="202.2" r="7.04" id="圖層_25" data-name="圖層 25"/><circle class="cls-1" cx="62.68" cy="223.09" r="6.38" id="圖層_24" data-name="圖層 24"/><circle class="cls-1" cx="62.68" cy="243.98" r="5.72" id="圖層_23" data-name="圖層 23"/><circle class="cls-1" cx="62.68" cy="264.86" r="5.06" id="圖層_22" data-name="圖層 22"/><circle class="cls-1" cx="62.68" cy="285.75" r="4.4" id="圖層_21" data-name="圖層 21"/><circle class="cls-1" cx="62.68" cy="306.64" r="3.74" id="圖層_20" data-name="圖層 20"/><circle class="cls-1" cx="62.68" cy="327.53" r="3.08" id="圖層_19" data-name="圖層 19"/><circle class="cls-1" cx="39.64" cy="181.31" r="7.69" id="圖層_18" data-name="圖層 18"/><circle class="cls-1" cx="39.64" cy="202.2" r="7.04" id="圖層_17" data-name="圖層 17"/><circle class="cls-1" cx="39.64" cy="223.09" r="6.38" id="圖層_16" data-name="圖層 16"/><circle class="cls-1" cx="39.64" cy="243.98" r="5.72" id="圖層_15" data-name="圖層 15"/><circle class="cls-1" cx="39.64" cy="264.86" r="5.06" id="圖層_14" data-name="圖層 14"/><circle class="cls-1" cx="39.64" cy="285.75" r="4.4" id="圖層_13" data-name="圖層 13"/><circle class="cls-1" cx="39.64" cy="306.64" r="3.74" id="圖層_12" data-name="圖層 12"/><circle class="cls-1" cx="39.64" cy="327.53" r="3.08" id="圖層_11" data-name="圖層 11"/><circle class="cls-1" cx="39.64" cy="348.42" r="2.42" id="圖層_10" data-name="圖層 10"/><circle class="cls-1" cx="14.65" cy="181.31" r="7.69" id="圖層_9" data-name="圖層 9"/><circle class="cls-1" cx="14.65" cy="202.2" r="7.04" id="圖層_8" data-name="圖層 8"/><circle class="cls-1" cx="14.65" cy="223.09" r="6.38" id="圖層_7" data-name="圖層 7"/><circle class="cls-1" cx="14.65" cy="243.98" r="5.72" id="圖層_6" data-name="圖層 6"/><circle class="cls-1" cx="14.65" cy="264.86" r="5.06" id="圖層_5" data-name="圖層 5"/><circle class="cls-1" cx="14.65" cy="285.75" r="4.4" id="圖層_4" data-name="圖層 4"/><path class="cls-1" d="M16.2 79.06H7.42V17.3h25.13v60.85h-8.78v-4.23H16.2zM23.77 34v-9.13H16.2V34zm-7.57 7v8.7h7.57v-8.78zm0 25.43h7.57v-9.17H16.2zm17.86 9.08c2-1.61 3-3.13 3-4.54V17h31.81v33.6h-1.51a51.27 51.27 0 0 0 7.27 5.76 70.7 70.7 0 0 0-6.36 5.45q-2.73 2.41-4.27 3.63a66.48 66.48 0 0 0 11.2 9.08Q70.08 80 68.57 83.6q-18.76-13.92-19.07-33h-3.33v19.08c1-.61 3-1.92 6-3.94.41 1.21.91 2.83 1.52 4.84.4 1.42.7 2.53.91 3.34a76.11 76.11 0 0 0-15.4 10.89 27.83 27.83 0 0 1-1.81-3.63 37.49 37.49 0 0 0-3.33-5.75zm12.11-50.34v5.15h13v-5.15zm0 12.12V43h13v-5.71zm13.62 21.49a22.42 22.42 0 0 0 5.75-8.18h-7.87a25.8 25.8 0 0 0 2.12 8.18z" id="圖層_3" data-name="圖層 3"/><path class="cls-1" d="M3.78 118.44l6.36-8.18a67.37 67.37 0 0 1 12.11 9.09l-6.05 8.17a83.73 83.73 0 0 0-12.42-9.08zm10 41.47a109.74 109.74 0 0 1-9.69-5.45q4.83-7.86 10-25.12a49.85 49.85 0 0 0 8.48 5.14q-1.21 3.35-3.94 11.51-3.34 9.39-4.85 13.92zm2.12-66A54.28 54.28 0 0 1 26.49 103l-6.36 7.57a54.56 54.56 0 0 0-11.2-8.78zm11.5 8.17h17.86V91.8H51q4.85-.3 4.85.6v1.22a12.17 12.17 0 0 0-.61 3.93v4.54h17.87q-.9 7.57-2.42 14.53a45.83 45.83 0 0 0-10.6 0l1.52-6.62h-6.36v11.81h14.23q-3 14.83-9.69 25.13a44 44 0 0 0 15.14 4.23 27.53 27.53 0 0 0-5.15 10.3 60.73 60.73 0 0 1-17.25-7.27 146.67 146.67 0 0 1-13.93 7 14.45 14.45 0 0 1-2.42 1.21 19.26 19.26 0 0 0-5.75-7.57Q27.7 159 25 162.64a3.76 3.76 0 0 0-.91-.61 92.8 92.8 0 0 0-8.17-4.84q11.19-9.69 11.5-33.3zM45 147.2q-4.24-6.66-6.36-17.86h-2.16A67.48 67.48 0 0 1 31.33 153 40.82 40.82 0 0 0 45 147.2zM36.48 110v11.81h9.08V110zm15.44 31.18q3.33-3.63 5.15-11.8h-9.39a40 40 0 0 0 4.24 11.76z" id="圖層_2" data-name="圖層 2"/></svg>